<?xml version="1.0" encoding="utf-8"?>
<!-- Generator: Adobe Illustrator 25.4.1, SVG Export Plug-In . SVG Version: 6.00 Build 0)  -->
<svg version="1.1"
	 id="Layer_1" xmlns:cc="http://creativecommons.org/ns#" xmlns:dc="http://purl.org/dc/elements/1.1/" xmlns:rdf="http://www.w3.org/1999/02/22-rdf-syntax-ns#" xmlns:svg="http://www.w3.org/2000/svg"
	 xmlns="http://www.w3.org/2000/svg" xmlns:xlink="http://www.w3.org/1999/xlink" x="0px" y="0px" viewBox="0 0 30 30"
	 style="enable-background:new 0 0 30 30;" xml:space="preserve">
<style type="text/css">
	.st0{fill-rule:evenodd;clip-rule:evenodd;fill:#ED1C24;}
</style>
<g id="g3813" transform="translate(-495.97,-496)">
	<path id="path3815" class="st0" d="M508,499h6c2.2,0,3,0.8,3,3s-0.8,4-3,4h-6c-2.2,0-3-1.8-3-4S505.8,499,508,499z"/>
	<rect id="rect3817" x="507" y="504" class="st0" width="2" height="6"/>
	<rect id="rect3819" x="513" y="504" class="st0" width="2" height="6"/>
	<path id="polygon3821" class="st0" d="M504,515c0,0-1.1-0.9-1.1-2c0-1.1,1.3-3.5,2.1-4s11.3-0.4,12,0s2,2.9,2,4s-1,2-1,2H504z"/>
	<rect id="rect3823" x="516" y="514" class="st0" width="2" height="9"/>
	<rect id="rect3825" x="504" y="514" class="st0" width="2" height="9"/>
	<rect id="rect3827" x="507" y="514" class="st0" width="2" height="6"/>
	<rect id="rect3829" x="513" y="514" class="st0" width="2" height="6"/>
</g>
</svg>
